
<svg width="100%" height="100%" fill="none" viewBox="0 0 1442 1444"><g id="roam-loader"><g id="bg-frame" class="background"><path id="topRightCross" fill="black" d="M1145.5 658V706H1362L1318.5 553.5L1255 584V612L1206.5 658H1145.5Z"></path><path id="bottomRightCross" fill="black" d="M1145.5 775.5V727.5H1362L1318.5 880L1255 849.5V821.5L1206.5 775.5H1145.5Z"></path><line stroke-width="71" stroke="black" y2="716.5" x2="1407" y1="716.5" x1="23" id="Line"></line></g><g transform="translate(721 721)"><g transform="rotate(0)" id="anim-bar" class="wand"> // rotate (around the tmp origin)
			<g transform="translate(-721 -721)"><path fill="black" d="M849 482L732.5 571.5L710 697L876 551.5L905 542.5V558L979 631.5L1009 635.5L994.5 571.5L952 531L938.5 511L1199 298.5L1165.5 272.5L1091 320.5L1079.5 282.5L885 466L851 435L837.5 452.5L849 482Z" id="Vector4"></path><circle fill="black" r="110" cy="725" cx="714" id="Ellipse2"></circle><path fill="black" d="M468.5 762L441.5 793L526.5 882.5L228.5 1144.5L271 1171.5L336 1120V1156L670 886.5L672 865L712.5 822.5L643 793L609 831L599.5 821.5L549 865L493 806.5L468.5 762Z" id="Vector5"></path></g></g></g><g id="fg-frame"><circle stroke-width="116" stroke="black" r="663" cy="721" cx="721" id="Ellipse"></circle><line stroke-width="66" stroke="black" y2="60" x2="715" y1="1444" x1="715" id="Line_2"></line><path fill="black" d="M366.5 1205C366.5 1215 316.5 1215.5 310.5 1219L372.5 1288.5L715.5 1375V912C703.667 915.333 674.4 942 652 956C624 973.5 656.5 962.541 656.5 990C656.5 1018.5 652 1019 652 1031.5C652 1044 540 1009 522.5 1031.5C505 1054 563 1118 563 1118C563 1118 506 1161 468.5 1127.5C431 1094 397.5 1095 375 1115C352.5 1135 366.5 1192.5 366.5 1205Z" id="Vector"></path><path fill="black" d="M1067.5 1205C1067.5 1215 1117.5 1215.5 1123.5 1219L1061.5 1288.5L718.5 1375V912C730.333 915.333 759.6 942 782 956C810 973.5 777.5 962.541 777.5 990C777.5 1018.5 782 1019 782 1031.5C782 1044 894 1009 911.5 1031.5C929 1054 871 1118 871 1118C871 1118 928 1161 965.5 1127.5C1003 1094 1036.5 1095 1059 1115C1081.5 1135 1067.5 1192.5 1067.5 1205Z" id="Vector_2"></path><path fill="black" d="M543 184.5L512 141.5L700.5 60V281.5H660C661.667 257.667 660.9 204.9 644.5 184.5C628.1 164.1 570 176 543 184.5Z" id="Vector_3"></path><path fill="black" d="M881.5 184.5L912.5 141.5L724 60V281.5H764.5C762.833 257.667 763.6 204.9 780 184.5C796.4 164.1 854.5 176 881.5 184.5Z" id="Vector_4"></path><path fill="black" d="M293.5 658V703.5H97.5V535.5L176.5 586.5L222.5 658H293.5Z" id="Vector3"></path><path fill="black" d="M293.5 774V728.5H97.5V896.5L176.5 845.5L222.5 774H293.5Z" id="Vector31"></path></g></g></svg>